<svg width="40" height="40" viewBox="0 0 40 40" fill="none" xmlns="http://www.w3.org/2000/svg">
<g clip-path="url(#clip0_1_1270)">
<path d="M33.2303 13.3332H35.0003C35.8844 13.3332 36.7322 13.6844 37.3573 14.3095C37.9825 14.9346 38.3337 15.7825 38.3337 16.6665V23.3332C38.3337 24.2173 37.9825 25.0651 37.3573 25.6902C36.7322 26.3154 35.8844 26.6665 35.0003 26.6665H33.2303C32.824 29.8887 31.2558 32.8518 28.8199 34.9999C26.384 37.1479 23.248 38.3332 20.0003 38.3332V34.9999C22.6525 34.9999 25.196 33.9463 27.0714 32.0709C28.9468 30.1956 30.0003 27.652 30.0003 24.9999V14.9999C30.0003 12.3477 28.9468 9.80417 27.0714 7.92881C25.196 6.05344 22.6525 4.99987 20.0003 4.99987C17.3482 4.99987 14.8046 6.05344 12.9293 7.92881C11.0539 9.80417 10.0003 12.3477 10.0003 14.9999V26.6665H5.00033C4.11627 26.6665 3.26842 26.3154 2.6433 25.6902C2.01818 25.0651 1.66699 24.2173 1.66699 23.3332V16.6665C1.66699 15.7825 2.01818 14.9346 2.6433 14.3095C3.26842 13.6844 4.11627 13.3332 5.00033 13.3332H6.77032C7.17704 10.1114 8.74546 7.14866 11.1813 5.001C13.6171 2.85334 16.7529 1.66833 20.0003 1.66833C23.2477 1.66833 26.3835 2.85334 28.8194 5.001C31.2552 7.14866 32.8236 10.1114 33.2303 13.3332ZM5.00033 16.6665V23.3332H6.66699V16.6665H5.00033ZM33.3337 16.6665V23.3332H35.0003V16.6665H33.3337ZM12.9337 26.3082L14.7003 23.4815C16.2888 24.4766 18.1259 25.0029 20.0003 24.9999C21.8747 25.0029 23.7119 24.4766 25.3003 23.4815L27.067 26.3082C24.9491 27.6351 22.4996 28.337 20.0003 28.3332C17.5011 28.337 15.0516 27.6351 12.9337 26.3082Z" fill="black"/>
</g>
<defs>
<clipPath id="clip0_1_1270">
<rect width="40" height="40" fill="white"/>
</clipPath>
</defs>
</svg>
