<svg width="25" height="25" viewBox="0 0 25 25" fill="none" xmlns="http://www.w3.org/2000/svg">
<g clip-path="url(#clip0_1_1040)">
<path d="M12.5002 22.9167C6.74704 22.9167 2.0835 18.2532 2.0835 12.5C2.0835 6.74692 6.74704 2.08337 12.5002 2.08337C18.2533 2.08337 22.9168 6.74692 22.9168 12.5C22.9168 18.2532 18.2533 22.9167 12.5002 22.9167ZM12.5002 20.8334C14.7103 20.8334 16.8299 19.9554 18.3927 18.3926C19.9555 16.8298 20.8335 14.7102 20.8335 12.5C20.8335 10.2899 19.9555 8.17029 18.3927 6.60748C16.8299 5.04468 14.7103 4.16671 12.5002 4.16671C10.29 4.16671 8.17041 5.04468 6.60761 6.60748C5.0448 8.17029 4.16683 10.2899 4.16683 12.5C4.16683 14.7102 5.0448 16.8298 6.60761 18.3926C8.17041 19.9554 10.29 20.8334 12.5002 20.8334ZM17.1877 7.81254L14.5835 14.5834L7.81266 17.1875L10.4168 10.4167L17.1877 7.81254ZM12.5002 13.5417C12.7764 13.5417 13.0414 13.432 13.2367 13.2366C13.4321 13.0413 13.5418 12.7763 13.5418 12.5C13.5418 12.2238 13.4321 11.9588 13.2367 11.7635C13.0414 11.5681 12.7764 11.4584 12.5002 11.4584C12.2239 11.4584 11.9589 11.5681 11.7636 11.7635C11.5682 11.9588 11.4585 12.2238 11.4585 12.5C11.4585 12.7763 11.5682 13.0413 11.7636 13.2366C11.9589 13.432 12.2239 13.5417 12.5002 13.5417Z" fill="black"/>
</g>
<defs>
<clipPath id="clip0_1_1040">
<rect width="25" height="25" fill="white"/>
</clipPath>
</defs>
</svg>
