<svg width="25" height="25" viewBox="0 0 25 25" fill="none" xmlns="http://www.w3.org/2000/svg">
<g clip-path="url(#clip0_1_1043)">
<path d="M18.2292 21.875C17.2622 21.875 16.3349 21.4909 15.6512 20.8072C14.9674 20.1234 14.5833 19.1961 14.5833 18.2292C14.5833 17.2622 14.9674 16.3349 15.6512 15.6512C16.3349 14.9674 17.2622 14.5833 18.2292 14.5833C19.1961 14.5833 20.1234 14.9674 20.8072 15.6512C21.4909 16.3349 21.875 17.2622 21.875 18.2292C21.875 19.1961 21.4909 20.1234 20.8072 20.8072C20.1234 21.4909 19.1961 21.875 18.2292 21.875ZM18.2292 19.7917C18.6436 19.7917 19.041 19.627 19.334 19.334C19.627 19.041 19.7917 18.6436 19.7917 18.2292C19.7917 17.8148 19.627 17.4173 19.334 17.1243C19.041 16.8313 18.6436 16.6667 18.2292 16.6667C17.8148 16.6667 17.4173 16.8313 17.1243 17.1243C16.8313 17.4173 16.6667 17.8148 16.6667 18.2292C16.6667 18.6436 16.8313 19.041 17.1243 19.334C17.4173 19.627 17.8148 19.7917 18.2292 19.7917ZM6.77083 10.4167C6.29206 10.4167 5.81797 10.3224 5.37563 10.1391C4.9333 9.95592 4.53139 9.68737 4.19284 9.34883C3.85429 9.01028 3.58574 8.60837 3.40252 8.16603C3.2193 7.7237 3.125 7.24961 3.125 6.77083C3.125 6.29206 3.2193 5.81797 3.40252 5.37563C3.58574 4.9333 3.85429 4.53139 4.19284 4.19284C4.53139 3.85429 4.9333 3.58574 5.37563 3.40252C5.81797 3.2193 6.29206 3.125 6.77083 3.125C7.73777 3.125 8.6651 3.50911 9.34883 4.19284C10.0326 4.87657 10.4167 5.8039 10.4167 6.77083C10.4167 7.73777 10.0326 8.6651 9.34883 9.34883C8.6651 10.0326 7.73777 10.4167 6.77083 10.4167ZM6.77083 8.33333C7.18523 8.33333 7.58266 8.16871 7.87569 7.87569C8.16871 7.58266 8.33333 7.18523 8.33333 6.77083C8.33333 6.35643 8.16871 5.959 7.87569 5.66598C7.58266 5.37295 7.18523 5.20833 6.77083 5.20833C6.35643 5.20833 5.959 5.37295 5.66598 5.66598C5.37295 5.959 5.20833 6.35643 5.20833 6.77083C5.20833 7.18523 5.37295 7.58266 5.66598 7.87569C5.959 8.16871 6.35643 8.33333 6.77083 8.33333ZM19.8656 3.66146L21.3385 5.13437L5.13542 21.3385L3.6625 19.8656L19.8646 3.66146H19.8656Z" fill="black"/>
</g>
<defs>
<clipPath id="clip0_1_1043">
<rect width="25" height="25" fill="white"/>
</clipPath>
</defs>
</svg>
