<svg width="20" height="20" viewBox="0 0 20 20" fill="none" xmlns="http://www.w3.org/2000/svg">
<path d="M15.5283 14.2323L19.4544 18.1575L18.1573 19.4545L14.2322 15.5285C12.7717 16.6992 10.9551 17.336 9.08325 17.3334C4.52925 17.3334 0.833252 13.6374 0.833252 9.08337C0.833252 4.52937 4.52925 0.833374 9.08325 0.833374C13.6373 0.833374 17.3333 4.52937 17.3333 9.08337C17.3359 10.9552 16.6991 12.7718 15.5283 14.2323ZM13.6895 13.5521C14.8529 12.3558 15.5025 10.7521 15.4999 9.08337C15.4999 5.53771 12.628 2.66671 9.08325 2.66671C5.53758 2.66671 2.66659 5.53771 2.66659 9.08337C2.66659 12.6281 5.53758 15.5 9.08325 15.5C10.752 15.5027 12.3556 14.853 13.552 13.6896L13.6895 13.5521Z" fill="black"/>
</svg>
